<svg xmlns="http://www.w3.org/2000/svg" width="30.454" height="30.454" viewBox="0 0 30.454 30.454"><g transform="translate(0 0)"><path d="M11.774,28.026l-.679.68a3.652,3.652,0,0,1-2.832.85,7.6,7.6,0,0,1-5.1-2.25A7.675,7.675,0,0,1,.922,22.176a3.7,3.7,0,0,1,.844-2.844L17.226,3.858a.446.446,0,1,0-.631-.631L15.226,4.6,11.744,1.111A4.523,4.523,0,0,0,8.238.006a8.574,8.574,0,0,0-8.232,8.2,4.494,4.494,0,0,0,1.111,3.5l.448.449a.446.446,0,0,0,.631-.631l-.449-.449A3.658,3.658,0,0,1,.9,8.245,7.681,7.681,0,0,1,8.272.9a3.69,3.69,0,0,1,2.841.844L14.6,5.228,5.248,14.584,3.635,12.97A.446.446,0,1,0,3,13.6l1.613,1.615L1.134,18.7A4.531,4.531,0,0,0,.03,22.21a8.574,8.574,0,0,0,8.2,8.238q.156.006.308.006a4.32,4.32,0,0,0,3.19-1.118l.679-.679a.446.446,0,0,0-.631-.631Z" transform="translate(0)" fill="#fff"/><path d="M236.362,237.889a.445.445,0,0,0,.316-.131l1.51-1.511a.446.446,0,1,0-.631-.631l-1.51,1.511a.446.446,0,0,0,.316.761Z" transform="translate(-221.884 -221.479)" fill="#fff"/><path d="M201.243,198.435a.446.446,0,0,0-.631,0l-1.51,1.511a.446.446,0,0,0,.631.631l1.51-1.511A.446.446,0,0,0,201.243,198.435Z" transform="translate(-187.138 -186.509)" fill="#fff"/><path d="M273.4,274.959a.445.445,0,0,0,.316-.131l1.51-1.511a.446.446,0,1,0-.631-.631l-1.51,1.511a.446.446,0,0,0,.316.761Z" transform="translate(-256.72 -256.344)" fill="#fff"/><path d="M173.938,300.366a.445.445,0,0,0,.316-.131l1.51-1.511a.446.446,0,1,0-.631-.631l-1.51,1.511a.446.446,0,0,0,.316.761Z" transform="translate(-163.173 -280.24)" fill="#fff"/><path d="M138.818,260.911a.446.446,0,0,0-.631,0l-1.51,1.511a.446.446,0,1,0,.631.631l1.51-1.511A.446.446,0,0,0,138.818,260.911Z" transform="translate(-128.426 -245.269)" fill="#fff"/><path d="M212.8,335.793a.446.446,0,1,0-.631-.631l-1.51,1.511a.446.446,0,0,0,.631.631Z" transform="translate(-198.008 -315.104)" fill="#fff"/><path d="M298.826,174.3l-1.51,1.511a.446.446,0,1,0,.631.631l1.51-1.511a.446.446,0,1,0-.631-.631Z" transform="translate(-279.509 -163.813)" fill="#fff"/><path d="M260.372,138.634a.446.446,0,0,0,.631.631l1.51-1.511a.446.446,0,1,0-.631-.631Z" transform="translate(-244.763 -128.843)" fill="#fff"/><path d="M334.355,213.516a.446.446,0,0,0,.631,0L336.5,212a.446.446,0,1,0-.631-.631l-1.51,1.511A.446.446,0,0,0,334.355,213.516Z" transform="translate(-314.345 -198.678)" fill="#fff"/><path d="M236.461,18.719l-.448-.449a.446.446,0,1,0-.631.631l.449.449a3.658,3.658,0,0,1,.849,2.835,7.681,7.681,0,0,1-7.374,7.347,3.69,3.69,0,0,1-2.842-.844L222.982,25.2l9.348-9.356,1.613,1.614a.446.446,0,1,0,.631-.631l-1.613-1.615,3.5-3.5a4.494,4.494,0,0,0,1.111-3.5,8.574,8.574,0,0,0-8.232-8.2,4.524,4.524,0,0,0-3.507,1.105l-.705.706a.446.446,0,1,0,.631.631l.7-.705A3.69,3.69,0,0,1,229.306.9a7.681,7.681,0,0,1,7.375,7.347,3.659,3.659,0,0,1-.85,2.835L220.354,26.57a.446.446,0,1,0,.631.631l1.366-1.367,3.483,3.486a4.354,4.354,0,0,0,3.2,1.11q.152,0,.308-.006a8.574,8.574,0,0,0,8.232-8.2,4.494,4.494,0,0,0-1.111-3.5Z" transform="translate(-207.125 0)" fill="#fff"/></g></svg>