<svg xmlns="http://www.w3.org/2000/svg" width="24.855" height="29.256" viewBox="0 0 24.855 29.256"><g transform="translate(-38.51 0)"><path d="M78.42,415.782a1.656,1.656,0,1,0,1.656-1.656A1.658,1.658,0,0,0,78.42,415.782Zm2.455,0a.8.8,0,1,1-.8-.8A.8.8,0,0,1,80.875,415.782Z" transform="translate(-37.629 -390.462)" fill="#fff"/><path d="M45.961,251.873a3.089,3.089,0,0,1,3.085,3.085v3.9a.429.429,0,0,0,.857,0v-3.9a3.943,3.943,0,1,0-7.885,0v3.12a3.936,3.936,0,1,0,.857,0v-3.12a3.089,3.089,0,0,1,3.085-3.085Zm-.435,10.119a3.08,3.08,0,1,1-3.079-3.079A3.083,3.083,0,0,1,45.526,261.992Z" transform="translate(0 -236.673)" fill="#fff"/><path d="M230.35,355.412a.429.429,0,0,0-.429.429v4.577a3.085,3.085,0,1,1-6.171,0v-1.128a.429.429,0,0,0-.857,0v1.128a3.943,3.943,0,1,0,7.885,0v-4.577A.429.429,0,0,0,230.35,355.412Z" transform="translate(-173.848 -335.103)" fill="#fff"/><path d="M247.008,10.325a.429.429,0,0,0-.429-.429h-.748V3.575a1.462,1.462,0,0,0-1.461-1.461h-.247V1.428a1.428,1.428,0,0,0-2.857,0V3.657a1.428,1.428,0,0,0,2.857,0V2.971h.247a.6.6,0,0,1,.6.6V9.9h-.68a.429.429,0,0,0-.429.429,3.72,3.72,0,1,1-7.44,0A.429.429,0,0,0,236,9.9h-.735V7.756a.429.429,0,0,0-.857,0V9.9h-.693a.429.429,0,0,0-.429.429,6.872,6.872,0,0,0,6.434,6.85v1.61a.429.429,0,1,0,.857,0v-1.61A6.872,6.872,0,0,0,247.008,10.325Zm-3.741-6.668a.571.571,0,1,1-1.142,0V1.428a.571.571,0,1,1,1.142,0Zm-3.122,12.674a6.014,6.014,0,0,1-5.991-5.577h1.433a4.578,4.578,0,0,0,9.115,0h1.433A6.014,6.014,0,0,1,240.145,16.331Z" transform="translate(-183.642 0)" fill="#fff"/><path d="M253.343,6.191a.429.429,0,0,0,.429-.429V3.575a.6.6,0,0,1,.6-.6h.247v.686a1.428,1.428,0,1,0,2.857,0V1.428a1.428,1.428,0,0,0-2.857,0v.686h-.247a1.462,1.462,0,0,0-1.461,1.461V5.762A.429.429,0,0,0,253.343,6.191Zm2.136-4.762a.571.571,0,1,1,1.142,0V3.657a.571.571,0,1,1-1.142,0Z" transform="translate(-202.153)" fill="#fff"/></g></svg>