<svg xmlns="http://www.w3.org/2000/svg" width="24.497" height="30.298" viewBox="0 0 24.497 30.298"><g transform="translate(-48.985)"><path d="M73.038,6.094a.444.444,0,0,0-.444.444v6.569a27.248,27.248,0,0,1-7.315.015l-1.328-.177a28.166,28.166,0,0,0-7.4-.006l-.353.046V3.2l.469-.062a27.273,27.273,0,0,1,7.164.006l1.328.177a28.141,28.141,0,0,0,7.432,0V4.486h.888V2.812a.444.444,0,0,0-.511-.439,27.25,27.25,0,0,1-7.692.069l-1.328-.177a28.169,28.169,0,0,0-7.4-.006l-.353.047V.444a.444.444,0,1,0-.888,0V25.251H52.145a.444.444,0,0,0-.444.444v1.63H50.485a1.5,1.5,0,0,0-1.5,1.5v1.029a.444.444,0,0,0,.444.444h1.184a.444.444,0,1,0,0-.888h-.74v-.585a.612.612,0,0,1,.612-.612H61.029a.612.612,0,0,1,.612.612v.585H52.666a.444.444,0,1,0,0,.888h9.418a.444.444,0,0,0,.444-.444V28.825a1.5,1.5,0,0,0-1.5-1.5H59.812V25.7a.444.444,0,0,0-.444-.444H56.2V13.881l.469-.062a27.271,27.271,0,0,1,7.164.006L65.162,14a28.156,28.156,0,0,0,3.721.247A28.15,28.15,0,0,0,73.1,13.93a.444.444,0,0,0,.377-.439V6.538a.444.444,0,0,0-.444-.444ZM58.924,27.325H52.59V26.139h6.334v1.186Z" transform="translate(0 0)" fill="#fff"/><path d="M242.768,75.1a3.939,3.939,0,1,0,3.939-3.939A3.943,3.943,0,0,0,242.768,75.1Zm6.989,0a3.05,3.05,0,1,1-3.05-3.05A3.054,3.054,0,0,1,249.757,75.1Z" transform="translate(-182.309 -66.949)" fill="#fff"/><path d="M283.525,111.215v.705h-.705a.444.444,0,0,0,0,.888h.705v.705a.444.444,0,0,0,.888,0v-.705h.705a.444.444,0,0,0,0-.888h-.705v-.705a.444.444,0,1,0-.888,0Z" transform="translate(-219.572 -104.212)" fill="#fff"/></g></svg>