<svg xmlns="http://www.w3.org/2000/svg" width="37.423" height="30.333" viewBox="0 0 37.423 30.333"><g transform="translate(0 -48.5)"><path d="M98.822,51.018A7.913,7.913,0,0,1,103.4,49.6a7.282,7.282,0,0,1,4.553,1.578,10.625,10.625,0,0,1,2.715,3.275.548.548,0,0,0,.962,0,10.625,10.625,0,0,1,2.715-3.275,7.282,7.282,0,0,1,4.553-1.578,8.031,8.031,0,0,1,7.542,5.25.548.548,0,1,0,1.019-.4,9.107,9.107,0,0,0-8.562-5.943,8.354,8.354,0,0,0-5.224,1.807,11.279,11.279,0,0,0-2.524,2.806,11.278,11.278,0,0,0-2.524-2.806A8.354,8.354,0,0,0,103.4,48.5a9,9,0,0,0-5.2,1.62.548.548,0,0,0,.63.9Z" transform="translate(-90.799)" fill="#fff"/><path d="M384.8,161.051a.548.548,0,1,0-1.089.13,10.868,10.868,0,0,1,.076,1.285c0,4.6-2.943,8.01-8.74,13.068a.548.548,0,1,0,.721.826,43.7,43.7,0,0,0,6.6-6.735,11.836,11.836,0,0,0,2.516-7.158A11.956,11.956,0,0,0,384.8,161.051Z" transform="translate(-347.456 -103.877)" fill="#fff"/><path d="M9.867,106.887l1.278-2.258,3.033,5.36a.548.548,0,0,0,.954,0l3.563-6.3,1.808,3.2a.548.548,0,0,0,.477.278h3.05a3.128,3.128,0,0,0,3.074,2.575.548.548,0,0,0,0-1.1,2.026,2.026,0,1,1,1.763-1.026.548.548,0,0,0,.953.543,3.124,3.124,0,1,0-5.79-2.092H21.3l-2.128-3.761a.548.548,0,0,0-.954,0l-3.563,6.3-3.033-5.36a.548.548,0,0,0-.954,0l-1.6,2.823H5.462a9.947,9.947,0,0,1-1.1-4.529,9.549,9.549,0,0,1,1.855-5.824.548.548,0,1,0-.874-.661,10.635,10.635,0,0,0-2.077,6.485,10.927,10.927,0,0,0,.969,4.529H.548a.548.548,0,0,0,0,1.1H4.79c1.959,3.476,5.69,6.662,10.509,10.776l.006.005c1.208,1.031,2.577,2.2,4,3.445a1.58,1.58,0,0,0,2.083,0c1.355-1.187,3.462-2.99,4.93-4.242a.548.548,0,1,0-.712-.834c-1.47,1.255-3.581,3.061-4.941,4.252a.484.484,0,0,1-.638,0c-1.427-1.25-2.8-2.421-4.009-3.454l-.006-.006c-4.476-3.821-7.983-6.815-9.934-9.943H9.39a.548.548,0,0,0,.477-.278Z" transform="translate(0 -42.95)" fill="#fff"/></g></svg>