<svg xmlns="http://www.w3.org/2000/svg" width="38.066" height="45.731" viewBox="0 0 38.066 45.731"><g transform="translate(-265 -336)"><g transform="translate(224.832 336)"><g transform="translate(40.168 0)"><path d="M75.277,5.078,58.528.053a1.251,1.251,0,0,0-.719,0L41.059,5.078a1.251,1.251,0,0,0-.891,1.2V24.7a11.9,11.9,0,0,0,2.883,7.291,29.808,29.808,0,0,0,6.009,5.566,53.9,53.9,0,0,0,8.6,5.034,1.25,1.25,0,0,0,1.022,0,53.909,53.909,0,0,0,8.6-5.034,29.81,29.81,0,0,0,6.009-5.566A11.9,11.9,0,0,0,76.168,24.7V6.276A1.251,1.251,0,0,0,75.277,5.078Z" transform="translate(-40.168 0)" fill="#fff"/></g></g><g transform="translate(283 357.947)"><g transform="translate(0 4.053)"><g transform="translate(0 0)"><path d="M20.061,13.08a1.726,1.726,0,0,1-1.49,1.88,1.589,1.589,0,0,1-1.593-.936l-.813.072-.614.3a.463.463,0,0,0-.256.356,5.413,5.413,0,0,1-.309,1.2.461.461,0,0,0,.027.393l.219.391.608.408a1.093,1.093,0,1,1-.691,1.172l-.674-.452-.424-.052a.488.488,0,0,0-.4.134,5.488,5.488,0,0,1-1.2.868.482.482,0,0,0-.253.4l-.054.859.267,1.058a1.358,1.358,0,1,1-1.315.338l-.268-1.064-.414-.665a.606.606,0,0,0-.518-.284h0a5.484,5.484,0,0,1-1.06-.1.6.6,0,0,0-.558.175l-.547.577-.612,1.27a1.093,1.093,0,1,1-1.227-.581L6.507,19.5l.121-.858a.456.456,0,0,0-.163-.418,5.5,5.5,0,0,1-1.238-1.419.455.455,0,0,0-.386-.217l-.856-.008-.938.295A1.529,1.529,0,1,1,2.582,15.6l1-.313.727-.518a.374.374,0,0,0,.155-.337q-.018-.219-.018-.443a5.421,5.421,0,0,1,.5-2.271.373.373,0,0,0,0-.318l-.215-.44-.584-.441a1.093,1.093,0,1,1,.755-1.131l.648.489.653.116A5.467,5.467,0,0,1,7.825,8.943l.153-.931-.193-.962A1.567,1.567,0,0,1,6.623,5.88a1.531,1.531,0,0,1,1.268-1.8A1.619,1.619,0,0,1,9.8,5.278a1.487,1.487,0,0,1-.672,1.56l.183.907.448.716a.16.16,0,0,0,.136.075h0a5.417,5.417,0,0,1,2.81.782.158.158,0,0,0,.148.008l.7-.325.82-.887a1.093,1.093,0,1,1,1,.922l-.82.887-.266.716a.158.158,0,0,0,.021.148,5.425,5.425,0,0,1,.759,1.469.466.466,0,0,0,.313.3l.667.187.866-.077a1.675,1.675,0,0,1,1.394-1.141,1.632,1.632,0,0,1,1.754,1.555Z" transform="translate(0 -4.053)" fill="#f16162"/></g></g><g transform="translate(5.856 9.95)"><circle cx="4.038" cy="4.038" r="4.038" fill="#f58a97"/></g><path d="M142.647,150.5a4.039,4.039,0,0,1,3.423-3.992,4.038,4.038,0,1,0,0,7.984A4.04,4.04,0,0,1,142.647,150.5Z" transform="translate(-135.56 -136.513)" fill="#f07281"/><g transform="translate(1.95 4.347)"><circle cx="1.15" cy="1.15" r="1.15" transform="translate(0 0)" fill="#f16162"/><circle cx="0.76" cy="0.76" r="0.76" transform="translate(0.076 15.55)" fill="#f16162"/><circle cx="1.119" cy="1.119" r="1.119" transform="translate(13.664 16.438)" fill="#f16162"/><circle cx="1.043" cy="1.043" r="1.043" transform="translate(5.662 7.485)" fill="#f16162"/><circle cx="0.71" cy="0.71" r="0.71" transform="translate(6.833 11.058)" fill="#f16162"/><circle cx="0.596" cy="0.596" r="0.596" transform="translate(9.176 9.046)" fill="#f16162"/></g></g></g></svg>